<svg width="21" height="20" viewBox="0 0 21 20" fill="none" xmlns="http://www.w3.org/2000/svg">
<path d="M8.58398 1.20855C8.68021 1.52975 8.67901 1.87226 8.58055 2.19278C8.48208 2.51329 8.29077 2.7974 8.03081 3.00916C7.77085 3.22093 7.45392 3.35084 7.12012 3.38246C6.78632 3.41408 6.45064 3.34599 6.15554 3.1868C5.86044 3.02761 5.61919 2.78447 5.46229 2.48815C5.3054 2.19182 5.23991 1.85562 5.27412 1.52207C5.30833 1.18853 5.44069 0.872618 5.65447 0.61431C5.86825 0.356002 6.15384 0.1669 6.4751 0.0709248C6.90562 -0.0576858 7.36958 -0.0101016 7.76502 0.203219C8.16047 0.416541 8.45503 0.778143 8.58398 1.20855ZM0.0444854 10.0455C-0.0362705 9.7749 -0.00626805 9.48335 0.127895 9.23492C0.262059 8.98648 0.489398 8.8015 0.759923 8.72065L4.50349 7.60174L5.35203 4.02039C5.77168 4.31031 6.2616 4.482 6.77043 4.51745L6.1465 7.10675L10.6076 5.77155L8.67133 3.94552C9.07648 3.63642 9.3911 3.22411 9.58227 2.75174L12.2652 5.27865L16.0087 4.15973C16.2793 4.07898 16.5708 4.10898 16.8193 4.24314C17.0677 4.37731 17.2527 4.60465 17.3335 4.87517L20.0809 14.0677C20.1617 14.3383 20.1316 14.6298 19.9975 14.8783C19.8633 15.1267 19.636 15.3117 19.3655 15.3925L4.12082 19.9555C3.85026 20.0363 3.55871 20.0063 3.31028 19.8721C3.06184 19.7379 2.87686 19.5106 2.79601 19.2401L0.0444854 10.0455ZM8.26578 11.8153L9.19543 12.3166L8.69421 13.2462C8.62035 13.3951 8.60723 13.5668 8.65761 13.7251C8.70799 13.8835 8.81793 14.016 8.96421 14.0948C9.1105 14.1737 9.28168 14.1925 9.44163 14.1475C9.60157 14.1025 9.73776 13.9971 9.82144 13.8535L10.3227 12.9238L11.2523 13.4251C11.4018 13.5055 11.5771 13.5233 11.7397 13.4746C11.9024 13.4258 12.039 13.3145 12.1196 13.1651C12.2 13.0156 12.2178 12.8403 12.1691 12.6777C12.1203 12.5151 12.009 12.3784 11.8596 12.2978L10.9299 11.7966L11.4312 10.867C11.505 10.7181 11.5181 10.5464 11.4678 10.388C11.4174 10.2297 11.3075 10.0971 11.1612 10.0183C11.0149 9.93951 10.8437 9.92063 10.6838 9.96566C10.5238 10.0107 10.3876 10.1161 10.3039 10.2597L9.80272 11.1893L8.87307 10.6881C8.72422 10.6142 8.5525 10.6011 8.39415 10.6515C8.23581 10.7019 8.10324 10.8118 8.02443 10.9581C7.94562 11.1044 7.92674 11.2756 7.97177 11.4355C8.0168 11.5955 8.12222 11.7317 8.26578 11.8153Z" fill="white"/>
</svg>
