<svg width="18" height="18" viewBox="0 0 18 18" fill="none" xmlns="http://www.w3.org/2000/svg">
<path d="M1.6 0C0.72555 0 0 0.72555 0 1.6V3.2V16C0 16.884 0.716 17.6 1.6 17.6H16C16.884 17.6 17.6 16.884 17.6 16V3.2V1.6C17.6 0.72555 16.8744 0 16 0H1.6ZM1.6 1.6H16V3.2H10.4C10.4 4.084 9.684 4.8 8.8 4.8C7.916 4.8 7.2 4.084 7.2 3.2H1.6V1.6ZM8.8 6.4C11.4512 6.4 13.6 8.5488 13.6 11.2C13.6 13.8512 11.4512 16 8.8 16C6.1488 16 4 13.8512 4 11.2C4 8.5488 6.1488 6.4 8.8 6.4ZM8.7875 7.98906C8.5756 7.99237 8.37367 8.07962 8.22603 8.23166C8.07839 8.38369 7.9971 8.58809 8 8.8V10.8687L7.03437 11.8344C6.95759 11.9081 6.8963 11.9964 6.85407 12.0941C6.81184 12.1918 6.78953 12.2969 6.78845 12.4034C6.78736 12.5098 6.80753 12.6154 6.84776 12.7139C6.88799 12.8125 6.94748 12.902 7.02274 12.9773C7.09801 13.0525 7.18753 13.112 7.28607 13.1522C7.38461 13.1925 7.49019 13.2126 7.59663 13.2116C7.70306 13.2105 7.80821 13.1882 7.90591 13.1459C8.00361 13.1037 8.09191 13.0424 8.16562 12.9656L9.6 11.5312V8.8C9.60147 8.69297 9.58144 8.58673 9.54111 8.48758C9.50077 8.38843 9.44095 8.29838 9.36519 8.22276C9.28943 8.14714 9.19926 8.0875 9.10003 8.04735C9.0008 8.00721 8.89453 7.98739 8.7875 7.98906Z" fill="white"/>
</svg>
