<svg width="22" height="20" viewBox="0 0 22 20" fill="none" xmlns="http://www.w3.org/2000/svg">
<path d="M17.4993 0C15.0143 0 12.9993 2.015 12.9993 4.5C12.9993 4.9513 13.0866 5.37802 13.2103 5.78906L11.4993 7.5L14.4993 10.5L16.2103 8.78906C16.6213 8.91273 17.048 9 17.4993 9C19.9843 9 21.9993 6.985 21.9993 4.5C21.9993 3.841 21.85 3.2183 21.595 2.6543L18.6243 5.625L16.3743 3.375L19.345 0.404297C18.781 0.149297 18.1583 0 17.4993 0ZM7.86653 5C7.07153 5 6.30844 5.31591 5.74544 5.87891L0.87825 10.7461C-0.29275 11.9171 -0.29275 13.8173 0.87825 14.9883L5.29817 19.4121C5.90717 20.0221 6.83772 20.1731 7.60872 19.7871L13.0247 17.0742L14.4212 15.7422C15.2322 14.9672 15.2455 13.6758 14.4525 12.8828L8.46223 6.89258L10.4036 5H7.86653Z" fill="white"/>
</svg>
